# xmcd
#
# Track frame offsets: 
#        150
#        13506
#        41739
#        59309
#        76851
#        98177
#        110350
#        125923
#        143342
#        158148
#
# Disc length: 2330 seconds
#
# Revision: 0
# Processed by: cddbd v1.5.2PL0 Copyright (c) Steve Scherf et al.
# Submitted via: ExactAudioCopy v1.3
#
DISCID=7909180a
DTITLE=Eldon Kraft - Spoonfed
DYEAR=2008
DGENRE=Acoustic
TTITLE0=Surf Club
TTITLE1=Can't Pretend
TTITLE2=Catechism
TTITLE3=Gettin High
TTITLE4=Wildfire Blues
TTITLE5=Growing Pains
TTITLE6=Hard Pour
TTITLE7=Oh My Soul
TTITLE8=Jennifer's Song
TTITLE9=Mountain Home
EXTD=
EXTT0=
EXTT1=
EXTT2=
EXTT3=
EXTT4=
EXTT5=
EXTT6=
EXTT7=
EXTT8=
EXTT9=
PLAYORDER=
